HIERARCHY
ROOT ui
{
	 OFFSET 0 0 0
	 CHANNELS 3 XPosition YPosition Z Position
	 EndSite
	 {
	 OFFSET 0 -1 0
	 }
}
ROOT li
{
	 OFFSET 0 0 0
	 CHANNELS 3 XPosition YPosition Z Position
	 EndSite
	 {
	 OFFSET 0 -1 0
	 }
}
ROOT ul
{
	 OFFSET 0 0 0
	 CHANNELS 3 XPosition YPosition Z Position
	 EndSite
	 {
	 OFFSET 0 -1 0
	 }
}
ROOT ll
{
	 OFFSET 0 0 0
	 CHANNELS 3 XPosition YPosition Z Position
	 EndSite
	 {
	 OFFSET 0 -1 0
	 }
}
ROOT tt
{
	 OFFSET 0 0 0
	 CHANNELS 3 XPosition YPosition Z Position
	 EndSite
	 {
	 OFFSET 0 -1 0
	 }
}
ROOT tb
{
	 OFFSET 0 0 0
	 CHANNELS 3 XPosition YPosition Z Position
	 EndSite
	 {
	 OFFSET 0 -1 0
	 }
}
ROOT td
{
	 OFFSET 0 0 0
	 CHANNELS 3 XPosition YPosition Z Position
	 EndSite
	 {
	 OFFSET 0 -1 0
	 }
}
ROOT v
{
	 OFFSET 0 0 0
	 CHANNELS 3 XPosition YPosition Z Position
	 EndSite
	 {
	 OFFSET 0 -1 0
	 }
}
ROOT bn
{
	 OFFSET 0 0 0
	 CHANNELS 3 XPosition YPosition Z Position
	 EndSite
	 {
	 OFFSET 0 -1 0
	 }
}
MOTION
Frames: 29
Frame Time: 0.002
0.004406054019927979	3.605400025844574E-5	0		0.521349609375	-2.2878525390625	0		-1.1082037353515626	-0.015564557075500488	0		-0.7606710205078125	-2.27473046875	0		1.6273936767578125	-0.42866445922851565	0		3.183511474609375	0.1523446044921875	0		4.70974560546875	0.19187884521484375	0		5.58404736328125	0.18653445434570312	0		-0.12270008850097656	5.969259765625	0		
0.011887399673461915	-0.0025058660507202147	0		0.4731535339355469	-2.277159912109375	0		-1.0987225341796876	-0.018172767639160155	0		-0.7569893798828125	-2.270201904296875	0		1.6371680908203126	-0.4182205505371094	0		3.17530029296875	0.164214111328125	0		4.71857373046875	0.20540617370605468	0		5.59012939453125	0.18574922180175782	0		-0.12329351043701171	5.96889013671875	0		
0.006557483196258545	0.0022421419620513917	0		0.526684326171875	-2.28169140625	0		-1.105030029296875	-0.012427515029907226	0		-0.757380126953125	-2.2705791015625	0		1.6367366943359376	-0.41854507446289063	0		3.205826904296875	0.16224501037597655	0		4.71812841796875	0.20514935302734374	0		5.58569580078125	0.2028570556640625	0		-0.12386531066894531	5.96852685546875	0		
0.006148290157318115	0.0018923439979553222	0		0.4724075927734375	-2.2778486328125	0		-1.1054388427734374	-0.012803567886352538	0		-0.7238530883789063	-2.276689208984375	0		1.630491943359375	-0.41172686767578126	0		3.210259521484375	0.15486309814453125	0		4.7135625	0.19799998474121094	0		5.58661376953125	0.17818548583984375	0		-0.12539331817626953	5.96919580078125	0		
0.005767885208129883	0.001556789994239807	0		0.513096435546875	-2.278068359375	0		-1.1099052734375	-0.017078689575195313	0		-0.7601022338867187	-2.273257568359375	0		1.6229488525390625	-0.41986685180664063	0		3.1651044921875	0.16558847045898437	0		4.7131767578125	0.19778254699707032	0		5.582888671875	0.19013853454589844	0		-0.141116455078125	5.9601865234375	0		
-0.019559900283813478	0.0027839078903198243	0		0.4619659423828125	-2.270261962890625	0		-1.100306396484375	-0.019643863677978515	0		-0.760397705078125	-2.273595703125	0		1.63155859375	-0.4223380737304688	0		3.17369873046875	0.16315794372558592	0		4.71281640625	0.19758876037597656	0		5.5826376953125	0.18983792114257814	0		-0.12545855712890625	5.967513671875	0		
0.017118360519409178	0.0026790239810943603	0		0.5083122253417969	-2.2885673828125	0		-1.0924898681640625	-0.0131480712890625	0		-0.7817083740234375	-2.27545654296875	0		1.6352999267578125	-0.4196789245605469	0		3.21741455078125	0.16498800659179688	0		4.72558203125	0.20213616943359375	0		5.591734375	0.19601152038574218	0		-0.1250013885498047	5.96519091796875	0		
-0.010996599197387696	0.012010992050170899	0		0.4753507995605469	-2.275113525390625	0		-1.0996746826171875	-0.007303985118865966	0		-0.7209100341796875	-2.27408251953125	0		1.6291483154296875	-0.4127790832519531	0		3.1831875	0.16954295349121093	0		4.7214775390625	0.21207989501953126	0		5.5915576171875	0.20099385070800782	0		-0.12644503784179686	5.96693310546875	0		
0.004456814765930176	4.129689931869507E-4	0		0.5130831909179687	-2.277177734375	0		-1.1071282958984374	-0.01443498420715332	0		-0.7591162109375	-2.27253076171875	0		1.625770751953125	-0.41691790771484377	0		3.1727294921875	0.16260240173339843	0		4.71184375	0.19716448974609374	0		5.58196484375	0.18921588134765624	0		-0.14213671875	5.95700537109375	0		
-0.01591792106628418	-0.003382002115249634	0		0.49468887329101563	-2.285	0		-1.1074205322265624	-0.014697948455810546	0		-0.6925740966796875	-2.284235107421875	0		1.6214046630859376	-0.42101193237304685	0		3.17727880859375	0.15535975646972655	0		4.71154541015625	0.19707443237304687	0		5.57879833984375	0.17714212036132812	0		-0.12934901428222656	5.96848583984375	0		
0.003880124092102051	-2.550400048494339E-5	0		0.49447317504882815	-2.28519384765625	0		-1.1077041015625	-0.014939721107482911	0		-0.7616002807617187	-2.274970947265625	0		1.6300877685546875	-0.4233666687011719	0		3.1871396484375	0.16202772521972655	0		4.70540869140625	0.204135009765625	0		5.58151318359375	0.183832275390625	0		-0.12785530853271485	5.96623046875	0		
0.003603549003601074	-2.1368299424648284E-4	0		0.4724212341308594	-2.27789306640625	0		-1.09802587890625	-0.017376920700073243	0		-0.7238397216796875	-2.277004150390625	0		1.6338878173828124	-0.42059375	0		3.186858154296875	0.16193426513671874	0		4.71512353515625	0.2038703155517578	0		5.58361279296875	0.20097172546386718	0		-0.12830941772460938	5.96603857421875	0		
0.003333620071411133	-3.823060095310211E-4	0		0.49814691162109376	-2.281609130859375	0		-1.10110009765625	-0.008514986991882325	0		-0.7599699096679687	-2.27341650390625	0		1.6277828369140626	-0.4135867004394531	0		3.18658349609375	0.16185862731933592	0		4.71484765625	0.20383930969238281	0		5.59055419921875	0.20058248901367187	0		-0.12973176574707032	5.96688720703125	0		
0.0030689139366149904	-5.320730209350586E-4	0		0.512029541015625	-2.278048095703125	0		-1.1085140380859375	-0.015543146133422852	0		-0.726286376953125	-2.279320556640625	0		1.620358642578125	-0.42153775024414064	0		3.20713671875	0.1533471221923828	0		4.71042724609375	0.19691023254394532	0		5.58323681640625	0.20096383666992187	0		-0.1443987274169922	5.95603857421875	0		
0.00280717396736145	-6.635869741439819E-4	0		0.45890533447265625	-2.274024169921875	0		-1.108775390625	-0.01570420742034912	0		-0.7742824096679688	-2.269438720703125	0		1.6170225830078124	-0.4255606689453125	0		3.165203857421875	0.16920271301269532	0		4.71016015625	0.19690383911132814	0		5.5872236328125	0.1886568603515625	0		-0.14577545166015626	5.95792431640625	0		
-0.022426904678344725	7.607460021972657E-4	0		0.4934544982910156	-2.2858779296875	0		-1.109036376953125	-0.01584512996673584	0		-0.7646845092773438	-2.27878466796875	0		1.6198570556640626	-0.42170053100585936	0		3.17563427734375	0.15493260192871094	0		4.704744140625	0.190014404296875	0		5.5911181640625	0.16598323059082032	0		-0.1442475280761719	5.9547646484375	0		
0.002282912015914917	-8.737829923629761E-4	0		0.47343954467773436	-2.27653564453125	0		-1.085304443359375	-0.016482006072998046	0		-0.7587485961914062	-2.272028564453125	0		1.632621826171875	-0.4210416564941406	0		3.22042236328125	0.15693646240234374	0		4.71790478515625	0.2097359313964844	0		5.59689892578125	0.19512803649902344	0		-0.12944973754882813	5.96333984375	0		
0.01223100757598877	0.008829334259033202	0		0.5152933349609375	-2.273510009765625	0		-1.098350830078125	-0.006304646968841553	0		-0.75897119140625	-2.272122314453125	0		1.6323651123046874	-0.4210911865234375	0		3.164404296875	0.16911732482910155	0		4.71350830078125	0.20383076477050782	0		5.5854560546875	0.21305662536621095	0		-0.131759521484375	5.96630029296875	0		
-0.018328657150268556	-0.0045867648124694824	0		0.4590737609863281	-2.272363525390625	0		-1.1098287353515626	-0.016145999908447266	0		-0.7632886962890625	-2.2761103515625	0		1.6190869140625	-0.4218517150878906	0		3.169984130859375	0.16197250366210938	0		4.70908984375	0.1969233856201172	0		5.59058935546875	0.16954745483398437	0		-0.26455462646484373	5.94707470703125	0		
-0.023486085891723633	4.697310030460358E-4	0		0.5096695251464843	-2.28050146484375	0		-1.110094482421875	-0.016207098007202148	0		-0.7753992919921875	-2.26991162109375	0		1.615740234375	-0.4258189697265625	0		3.174565185546875	0.1548504180908203	0		4.70882177734375	0.196923095703125	0		5.579873046875	0.18914363098144532	0		-0.14667378234863282	5.95548681640625	0		
0.0012239149808883666	-0.0011034640073776245	0		0.4684093017578125	-2.280655029296875	0		-1.110357177734375	-0.016250932693481445	0		-0.7298942260742187	-2.28193798828125	0		1.6213499755859375	-0.4319727783203125	0		3.18444921875	0.16161773681640626	0		4.71338525390625	0.1888109893798828	0		5.5838115234375	0.17162173461914063	0		-0.13176345825195312	5.965125	0		
0.0058622751235961916	-0.006234912872314453	0		0.5220855102539063	-2.2848369140625	0		-1.0965921630859374	-0.015579919815063476	0		-0.761983642578125	-2.2742802734375	0		1.631331787109375	-0.4212107849121094	0		3.16919921875	0.1619229736328125	0		4.71245361328125	0.2038165283203125	0		5.58883740234375	0.19555831909179688	0		-0.1320329132080078	5.96509912109375	0		
0.010946882247924805	0.008639528274536132	0		0.47200982666015623	-2.27678076171875	0		-1.0996343994140625	-0.006531804084777832	0		-0.726293701171875	-2.27806640625	0		1.6310953369140626	-0.42122650146484375	0		3.208910888671875	0.15904847717285156	0		4.71221728515625	0.203799072265625	0		5.58871484375	0.20071617126464844	0		-0.13226568603515626	5.96508447265625	0		
5.220800042152405E-4	-0.0011486810445785521	0		0.5195634155273438	-2.2878154296875	0		-1.11105908203125	-0.016294540405273436	0		-0.7644842529296875	-2.276253662109375	0		1.625032958984375	-0.4141103515625	0		3.208698974609375	0.15903179931640626	0		4.712005859375	0.20377696228027345	0		5.5814326171875	0.20104443359375	0		-0.13343496704101562	5.96610107421875	0		
0.005229690074920654	-0.006251309871673584	0		0.4913924560546875	-2.28621435546875	0		-1.1112430419921875	-0.01628369331359863	0		-0.6958706665039063	-2.285724609375	0		1.614591064453125	-0.42589996337890623	0		3.17871630859375	0.16865635681152344	0		4.707673828125	0.19683714294433594	0		5.57905419921875	0.18899281311035157	0		-0.14876953125	5.9574296875	0		
1.8677499890327453E-4	-0.0011338440179824829	0		0.48445724487304687	-2.27506005859375	0		-1.10552490234375	-0.02238936424255371	0		-0.8018474731445312	-2.275431884765625	0		1.626475830078125	-0.4241622009277344	0		3.16841845703125	0.16185386657714843	0		4.7065029296875	0.19582546997070313	0		5.58531689453125	0.18339938354492188	0		-0.13269627380371093	5.9650966796875	0		
0.015174736022949218	0.0035611889362335207	0		0.4780347900390625	-2.28791552734375	0		-1.087516357421875	-0.016745214462280274	0		-0.7521324462890625	-2.282476318359375	0		1.6304180908203125	-0.4212506408691406	0		3.21235888671875	0.1638865203857422	0		4.709517578125	0.20171932983398438	0		5.58819189453125	0.1952715606689453	0		-0.13178094482421876	5.963095703125	0		
0.015095531463623047	0.00358660888671875	0		0.49710879516601564	-2.27930810546875	0		-1.1003778076171875	-0.006425211906433106	0		-0.7630729370117187	-2.2742041015625	0		1.6303321533203126	-0.42125054931640626	0		3.1665078125	0.17484877014160155	0		4.7156123046875	0.20954019165039062	0		5.5851748046875	0.1832088165283203	0		-0.13272337341308593	5.96514453125	0		
0.003011673927307129	0.0018772480487823486	0		0.4841106872558594	-2.275006591796875	0		-1.1085704345703125	-0.013198203086853027	0		-0.7051734619140625	-2.275406005859375	0		1.62134716796875	-0.4180565185546875	0		3.168187255859375	0.16178036499023438	0		4.70729443359375	0.19665745544433594	0		5.57876953125	0.18860739135742188	0		-0.26509603881835936	5.94602587890625	0		
